<svg xmlns="http://www.w3.org/2000/svg" viewBox="0 0 640 640" width="64" height="64" preserveAspectRatio="xMidYMid meet" style=" transform: translate3d(0px, 0px, 0px); content-visibility: visible;"><defs><clipPath id="__lottie_element_59"><rect width="640" height="640" x="0" y="0"></rect></clipPath></defs><g clip-path="url(#__lottie_element_59)"><g transform="matrix(1,0,0,1,320,320)" opacity="1" style="display: none;"><g opacity="1" transform="matrix(1,0,0,1,0,0)"><path fill="rgb(159,239,0)" fill-opacity="1" d=" M209.50399780273438,-0.8560000061988831 C209.50399780273438,25.437999725341797 209.33599853515625,51.731998443603516 209.5500030517578,78.02400207519531 C209.7779998779297,106.03900146484375 197.9459991455078,126.53099822998047 173.3679962158203,140.35299682617188 C127.18099975585938,166.32699584960938 81.447998046875,193.11000061035156 35.189998626708984,218.9530029296875 C25.631000518798828,224.29299926757812 14.869999885559082,228.20700073242188 4.175000190734863,230.57899475097656 C-6.252999782562256,232.89199829101562 -16.70599937438965,228.64700317382812 -25.871000289916992,223.7689971923828 C-48.012001037597656,211.98500061035156 -69.71600341796875,199.3719940185547 -91.51799774169922,186.95799255371094 C-119.24500274658203,171.1699981689453 -146.79600524902344,155.072998046875 -174.6179962158203,139.4550018310547 C-190.1269989013672,130.74899291992188 -201.3509979248047,118.6050033569336 -206.43899536132812,101.53500366210938 C-208.4029998779297,94.94599914550781 -209.3679962158203,87.81900024414062 -209.39500427246094,80.93099975585938 C-209.61099243164062,26.347999572753906 -209.58799743652344,-28.236000061035156 -209.43099975585938,-82.81999969482422 C-209.35800170898438,-108.1969985961914 -198.23699951171875,-127.43599700927734 -176.11399841308594,-140.0709991455078 C-131.68800354003906,-165.44500732421875 -87.24400329589844,-190.78799438476562 -42.76599884033203,-216.06900024414062 C-35.84600067138672,-220.0019989013672 -28.99799919128418,-224.32400512695312 -21.606000900268555,-227.11099243164062 C-2.937999963760376,-234.14999389648438 15.180999755859375,-231.96600341796875 32.46900177001953,-222.06100463867188 C80.46900177001953,-194.56100463867188 128.47999572753906,-167.0780029296875 176.52699279785156,-139.66099548339844 C198.8070068359375,-126.947998046875 209.27099609375,-107.4749984741211 209.44000244140625,-82.23300170898438 C209.6219940185547,-55.10900115966797 209.4810028076172,-27.98200035095215 209.4810028076172,-0.8560000061988831 C209.48800659179688,-0.8560000061988831 209.4969940185547,-0.8560000061988831 209.50399780273438,-0.8560000061988831z M167.61599731445312,-72.8030014038086 C165.8520050048828,-71.97899627685547 164.66200256347656,-71.5270004272461 163.57400512695312,-70.89900207519531 C117.27799987792969,-44.1609992980957 71.01300048828125,-17.3700008392334 24.658000946044922,9.265000343322754 C21.531999588012695,11.060999870300293 20.89299964904785,13.156999588012695 20.898000717163086,16.427000045776367 C20.972999572753906,69.16100311279297 20.93400001525879,121.89600372314453 20.937999725341797,174.6300048828125 C20.937999725341797,175.8520050048828 21.121999740600586,177.072998046875 21.24799919128418,178.63999938964844 C22.492000579833984,178.07899475097656 23.259000778198242,177.8070068359375 23.954999923706055,177.40899658203125 C67.06600189208984,152.7530059814453 110.11000061035156,127.9800033569336 153.32200622558594,103.50299835205078 C163.375,97.80899810791016 167.79100036621094,89.95500183105469 167.7259979248047,78.37899780273438 C167.45199584960938,29.80500030517578 167.61399841308594,-18.77199935913086 167.61599731445312,-67.34700012207031 C167.61599731445312,-68.95099639892578 167.61599731445312,-70.55500030517578 167.61599731445312,-72.8030014038086z M-167.64599609375,-73.24199676513672 C-167.64599609375,-70.38600158691406 -167.64599609375,-68.61100006103516 -167.64599609375,-66.83599853515625 C-167.6439971923828,-17.893999099731445 -167.5399932861328,31.04800033569336 -167.72000122070312,79.98999786376953 C-167.75900268554688,90.59300231933594 -163.60400390625,97.75399780273438 -154.28500366210938,103.01000213623047 C-114.62899780273438,125.375 -75.18800354003906,148.11900329589844 -35.654998779296875,170.70199584960938 C-31.000999450683594,173.36000061035156 -26.264999389648438,175.8730010986328 -20.972000122070312,178.781005859375 C-20.972000122070312,175.68099975585938 -20.972000122070312,173.52699279785156 -20.972000122070312,171.3719940185547 C-20.972000122070312,120.0989990234375 -21.04599952697754,68.82599639892578 -20.847000122070312,17.554000854492188 C-20.82900047302246,12.904000282287598 -22.389999389648438,10.52299976348877 -26.257999420166016,8.315999984741211 C-55.98699951171875,-8.645000457763672 -85.60800170898438,-25.79599952697754 -115.25,-42.909000396728516 C-132.36700439453125,-52.79100036621094 -149.46200561523438,-62.7130012512207 -167.64599609375,-73.24199676513672z M145.5590057373047,-108.81900024414062 C144.33700561523438,-109.65499877929688 143.8159942626953,-110.06800079345703 143.24600219726562,-110.39299774169922 C100.10399627685547,-135.01199340820312 56.83100128173828,-159.406005859375 13.904999732971191,-184.39700317382812 C3.674999952316284,-190.35299682617188 -4.98799991607666,-189.95700073242188 -14.875,-184.08799743652344 C-38.28300094604492,-170.1929931640625 -62.0369987487793,-156.88299560546875 -85.66500091552734,-143.36099243164062 C-105.54399871826172,-131.98500061035156 -125.44200134277344,-120.64299774169922 -145.8769989013672,-108.9739990234375 C-141.9929962158203,-106.76599884033203 -138.55099487304688,-104.83499908447266 -135.13299560546875,-102.86199951171875 C-91.552001953125,-77.70099639892578 -47.944000244140625,-52.58599853515625 -4.452000141143799,-27.27199935913086 C-1.0889999866485596,-25.315000534057617 1.2009999752044678,-25.275999069213867 4.51200008392334,-27.20599937438965 C37.21799850463867,-46.275001525878906 70.0270004272461,-65.16699981689453 102.80699920654297,-84.11000061035156 C116.87999725341797,-92.24299621582031 130.9530029296875,-100.37699890136719 145.5590057373047,-108.81900024414062z"></path></g></g><g transform="matrix(1,0,0,1,320,320)" opacity="1" style="display: block;"><g opacity="1" transform="matrix(1,0,0,1,0,0)"><path fill="rgb(159,239,0)" fill-opacity="1" d=" M206.5070037841797,81.66400146484375 C206.4720001220703,110.0770034790039 193.29299926757812,130.01699829101562 168.19200134277344,143.1320037841797 C143.1719970703125,156.2050018310547 118.67900085449219,170.28199768066406 93.91500091552734,183.8470001220703 C70.46800231933594,196.6909942626953 47.178001403808594,209.8489990234375 23.37700080871582,222.0030059814453 C15.5649995803833,225.99200439453125 6.5,228.29200744628906 -2.243000030517578,229.41900634765625 C-7.7829999923706055,230.13299560546875 -14.307000160217285,228.31900024414062 -19.485000610351562,225.78799438476562 C-34.50899887084961,218.44200134277344 -49.2859992980957,210.52499389648438 -63.7760009765625,202.16600036621094 C-86.21600341796875,189.2209930419922 -108.33499908447266,175.7209930419922 -130.59500122070312,162.46400451660156 C-147.5760040283203,152.3520050048828 -164.92999267578125,142.81100463867188 -181.45199584960938,131.9980010986328 C-200.11000061035156,119.78800201416016 -209.8560028076172,101.83899688720703 -209.6280059814453,79.41100311279297 C-209.20399475097656,37.66899871826172 -208.2169952392578,-4.067999839782715 -207.4600067138672,-45.80699920654297 C-207.23399353027344,-58.2760009765625 -206.78799438476562,-70.74600219726562 -206.80299377441406,-83.21499633789062 C-206.8350067138672,-110.1240005493164 -195.19900512695312,-129.9459991455078 -171.5570068359375,-142.8679962158203 C-124.3550033569336,-168.66799926757812 -77.1969985961914,-194.5500030517578 -30.051000595092773,-220.4530029296875 C-7.630000114440918,-232.77200317382812 14.491000175476074,-232.7530059814453 36.60100173950195,-219.55999755859375 C67.69000244140625,-201.00900268554688 98.87699890136719,-182.62100219726562 130.03399658203125,-164.18299865722656 C145.3300018310547,-155.13099670410156 160.61300659179688,-146.0570068359375 175.9720001220703,-137.11199951171875 C198.85299682617188,-123.78500366210938 210.0970001220703,-103.92500305175781 209.61700439453125,-77.48400115966797 C209.14300537109375,-51.375999450683594 208.00599670410156,0.8370000123977661 208.00599670410156,0.8370000123977661 C208.00599670410156,0.8370000123977661 206.5399932861328,54.72100067138672 206.5070037841797,81.66400146484375z M-164.85899353027344,-75.58200073242188 C-165.1230010986328,-73.68699645996094 -165.427001953125,-72.4489974975586 -165.44900512695312,-71.20500183105469 C-166.29800415039062,-22.176000595092773 -166.88999938964844,26.858999252319336 -168.1199951171875,75.87799835205078 C-168.41299438476562,87.572998046875 -163.61500549316406,94.82599639892578 -153.9770050048828,100.47699737548828 C-116.8949966430664,122.22100067138672 -79.98100280761719,144.2530059814453 -42.99300003051758,166.1580047607422 C-36.90800094604492,169.76100158691406 -30.767000198364258,173.26699829101562 -24.14699935913086,177.11000061035156 C-24.030000686645508,175.36500549316406 -23.94099998474121,174.56300354003906 -23.926000595092773,173.75900268554688 C-22.964000701904297,121.56400299072266 -22.097999572753906,69.36699676513672 -20.9060001373291,17.177000045776367 C-20.79400062561035,12.258000373840332 -22.384000778198242,9.927000045776367 -26.416000366210938,7.539999961853027 C-53.9900016784668,-8.781999588012695 -81.4000015258789,-25.3799991607666 -108.86000061035156,-41.893001556396484 C-127.21099853515625,-52.928001403808594 -145.55799865722656,-63.970001220703125 -164.85899353027344,-75.58200073242188z M166.89500427246094,-69.18299865722656 C165.45399475097656,-68.41999816894531 164.1439971923828,-67.75299835205078 162.85899353027344,-67.04000091552734 C142.0989990234375,-55.520999908447266 121.33100128173828,-44.016998291015625 100.58799743652344,-32.46799850463867 C75.0510025024414,-18.25 49.512001037597656,-4.033999919891357 24.066999435424805,10.347999572753906 C22.572999954223633,11.192000389099121 21.047000885009766,13.48799991607666 20.99799919128418,15.152000427246094 C20.226999282836914,41.249000549316406 19.663999557495117,67.35199737548828 19.121999740600586,93.45500183105469 C18.65999984741211,115.72699737548828 18.263999938964844,138 17.88599967956543,160.2740020751953 C17.788999557495117,165.97000122070312 17.871000289916992,171.66900634765625 17.871000289916992,178.11300659179688 C28.472999572753906,172.2530059814453 38.17399978637695,166.86700439453125 47.89799880981445,161.52200317382812 C83.26100158691406,142.08399963378906 118.63500213623047,122.66500091552734 153.9969940185547,103.22599792480469 C161.0449981689453,99.35099792480469 164.4250030517578,93.20500183105469 164.68099975585938,85.30699920654297 C164.95599365234375,76.83000183105469 165.093994140625,68.34700012207031 165.25799560546875,59.867000579833984 C165.81199645996094,31.26799964904785 166.43800354003906,2.6710000038146973 166.85899353027344,-25.93000030517578 C167.06900024414062,-40.20100021362305 166.89500427246094,-54.47800064086914 166.89500427246094,-69.18299865722656z M146.6510009765625,-105.7229995727539 C145.02000427246094,-106.85399627685547 143.99600219726562,-107.66400146484375 142.88299560546875,-108.322998046875 C101.00700378417969,-133.13099670410156 58.99300003051758,-157.7100067138672 17.33099937438965,-182.8719940185547 C6.86899995803833,-189.1909942626953 -2.122999906539917,-188.63800048828125 -12.383999824523926,-182.83399963378906 C-40.13399887084961,-167.13699340820312 -68.1969985961914,-151.99200439453125 -96.14900207519531,-136.6529998779297 C-111.55999755859375,-128.1959991455078 -126.99700164794922,-119.79000091552734 -142.75799560546875,-111.17900085449219 C-141.70399475097656,-110.45800018310547 -141.05799865722656,-109.96600341796875 -140.36599731445312,-109.54900360107422 C-117.88700103759766,-96.01300048828125 -95.40399932861328,-82.48200225830078 -72.91899871826172,-68.95600128173828 C-49.433998107910156,-54.827999114990234 -25.97599983215332,-40.65299987792969 -2.3889999389648438,-26.69700050354004 C-0.7820000052452087,-25.746000289916992 2.1989998817443848,-25.68000030517578 3.871999979019165,-26.525999069213867 C12.015999794006348,-30.645000457763672 19.94300079345703,-35.194000244140625 27.927000045776367,-39.62799835205078 C56.819000244140625,-55.67300033569336 85.70800018310547,-71.7249984741211 114.58799743652344,-87.79100036621094 C125.14800262451172,-93.66500091552734 135.68099975585938,-99.58599853515625 146.6510009765625,-105.7229995727539z">
                                        </path></g></g></g></svg>
